<svg xmlns="http://www.w3.org/2000/svg" width="53.45" height="51.816" viewBox="0 0 53.45 51.816"><defs><style>.a{fill:#a77d40;}</style></defs><path class="a" d="M-613,112.605a1.321,1.321,0,0,1,1.3-.753q10.2.022,20.407.01c.1,0,.209,0,.313.007a1.014,1.014,0,0,1,.96.984,1.024,1.024,0,0,1-.9,1.1,4.624,4.624,0,0,1-.625.016h-19.326v32.489h10.32c-.048-.262-.085-.512-.14-.758-.234-1.051-.467-2.1-.718-3.15a.891.891,0,0,0-.263-.474,3.868,3.868,0,0,1-1.6-4.31,4.164,4.164,0,0,1,3.561-3.036c.034-.006.067-.019.169-.05v-.589q0-7.15,0-14.3c0-1.039.331-1.37,1.376-1.37q11.874,0,23.747,0c1.074,0,1.4.326,1.4,1.4q0,7.1,0,14.2v.652c.232.058.448.1.658.167a4.087,4.087,0,0,1,3.137,3.217,3.878,3.878,0,0,1-1.61,3.981.747.747,0,0,0-.284.348c-.3,1.3-.575,2.612-.854,3.92a.546.546,0,0,0,.029.172h10.248v-32.5h-19.372c-.174,0-.349.007-.522-.006a1.074,1.074,0,0,1-1.02-1.053,1.056,1.056,0,0,1,1.027-1.04c.139-.009.278-.005.417-.005h20.146c1.151,0,1.464.308,1.464,1.442q0,16.937,0,33.873c0,1.1-.337,1.436-1.431,1.436h-11.5c-.389,1.762-.773,3.49-1.151,5.219q-.957,4.378-1.907,8.758a1.184,1.184,0,0,1-.782,1.016,1.15,1.15,0,0,1-1.216-.391c-1.557-1.518-3.123-3.027-4.679-4.546a3.024,3.024,0,0,1-.333-.48l-2.082,2.207c.371.369.841.829,1.3,1.3a1.107,1.107,0,0,1,.109,1.618,1.057,1.057,0,0,1-1.577-.112c-.472-.462-.9-.966-1.388-1.49-.352.335-.626.593-.9.854-.213.205-.42.416-.635.62-.61.579-1.255.644-1.695.173-.461-.493-.379-1.089.228-1.686q.651-.64,1.3-1.285c.022-.022.028-.062.011-.022l-2.006-2.1-4.615,4.477c-.125.121-.257.236-.373.365a1.168,1.168,0,0,1-1.3.432,1.2,1.2,0,0,1-.756-1.037c-1-4.476-2.012-8.948-3-13.426-.082-.371-.219-.465-.581-.464-3.671.013-7.342,0-11.013.019a1.515,1.515,0,0,1-1.483-.733Zm15.6,7.943v14.071h22.245V120.548Zm11.123,16.242q-5.95,0-11.9,0a10.471,10.471,0,0,0-1.2.044,2.066,2.066,0,0,0-1.924,1.873,2.009,2.009,0,0,0,1.775,1.994,3.791,3.791,0,0,0,.723.083q12.526.007,25.053-.014a3.4,3.4,0,0,0,1.581-.432,1.734,1.734,0,0,0,.037-3.07,3.9,3.9,0,0,0-1.828-.459C-578.063,136.771-582.169,136.79-586.275,136.79Zm7.205,17.959-2.011,2.082,3.822,3.7c.222-1.027.425-1.922.6-2.821a.6.6,0,0,0-.12-.45C-577.528,156.419-578.3,155.592-579.069,154.749Zm5.653-11.771-.134-.177a3.279,3.279,0,0,0-.8.409c-.942.874-1.85,1.784-2.778,2.673-.259.248-.544.47-.771.663l2.129,2.129c.308-.348.643-.725.975-1.1.17-.193.434-.366.488-.589C-573.983,145.655-573.708,144.314-573.417,142.978Zm-19.967,11.775c-.8.852-1.564,1.657-2.317,2.472a.494.494,0,0,0-.149.351c.2.94.418,1.875.673,2.989l3.544-3.9Zm-5.782-11.937c.278,1.233.6,2.3.744,3.4s.985,1.549,1.629,2.266l1.945-2.041c-1.155-1.119-2.33-2.272-3.531-3.4C-598.526,142.9-598.812,142.91-599.166,142.816Zm14.776,14-1.876-2.08-1.87,2.011,1.928,2.02Zm-8.852-8.882-1.917,2,1.847,1.958,1.848-1.988Zm10.447,3.442-1.714,1.881,1.851,2.014,1.769-1.85Zm-6.927-.025-1.858,1.979,1.775,1.931,1.848-1.964Zm-1.87-4.925,1.842,2.006,1.79-1.922-1.832-1.978Zm7.1,3.444L-586.267,148l-1.754,1.854,1.777,1.96Zm6.943.265-1.942-1.957-1.572,1.661,1.87,2.063Zm-5.378-5.4-1.631,1.706,1.836,1.975,1.681-1.831Zm3.568.35,1.986-2.144h-4.132Zm-9.247-2.168,2.351,2.086,2.31-2.086Zm-2.719.017h-3.812l1.85,2.059Zm16.136,8.159-.1-.07-2.226,2.386,1.461,1.6Zm-22.152-.152.9,4.005,1.46-1.522Z" transform="translate(613 -111.852)"/><path class="a" d="M-427.763,111.916a1.019,1.019,0,0,1,1.044,1.047,1.054,1.054,0,0,1-1.028,1.027,1.068,1.068,0,0,1-1.052-1.062A1.034,1.034,0,0,1-427.763,111.916Z" transform="translate(454.488 -111.907)"/></svg>