<svg xmlns="http://www.w3.org/2000/svg" width="65.452" height="50.487" viewBox="0 0 65.452 50.487"><defs><style>.a{fill:#a77d40;}</style></defs><path class="a" d="M-488,178.994c.764-2.026,1.536-4.049,2.289-6.079.924-2.493,1.848-4.986,2.735-7.491a1.258,1.258,0,0,1,1.37-.957c5.667.019,11.335-.018,17,.036a2.94,2.94,0,0,0,2.437-1.057,8.533,8.533,0,0,1-1.394-7.242,8.336,8.336,0,0,1,3.178-4.731,8.567,8.567,0,0,1,10.836.5,8.632,8.632,0,0,1,1.182,11.493,2.953,2.953,0,0,0,2.321,1.039c5.667-.053,11.334-.026,17-.025,1.019,0,1.145.089,1.492,1.035q2.395,6.529,4.781,13.061a3.538,3.538,0,0,1,.214,1.177q.019,9.587.009,19.175c0,1.1-.236,1.332-1.359,1.332q-31.383,0-62.765.007A1.393,1.393,0,0,1-488,199.7Zm44.812,19.443V173.78h-24.177v24.641h4.784v-.733c0-3.536.1-7.075-.031-10.606a3.723,3.723,0,0,1,4.135-4.162c2.23.124,4.472.025,6.708.027a3.452,3.452,0,0,1,3.8,3.795q0,5.463,0,10.927v.769Zm-42.99-.017h16.953v-18.2h-16.953Zm61.809-18.2H-441.31v18.194h16.941Zm-44.823-1.861v-.716c0-2.47.04-4.941-.021-7.409a2.089,2.089,0,0,1,.982-1.976c.828-.572,1.592-1.237,2.512-1.962-.382-.017-.588-.034-.793-.034-4.727,0-9.454.008-14.18-.014a.805.805,0,0,0-.911.633c-1.292,3.578-2.615,7.145-3.926,10.717-.086.234-.155.474-.248.761Zm24.565-12.1-.068.139c.9.709,1.782,1.437,2.7,2.119a1.519,1.519,0,0,1,.647,1.362c-.02,2.6-.009,5.2-.009,7.793v.672h16.569c-.045-.174-.066-.3-.109-.417-1.371-3.731-2.755-7.456-4.1-11.195-.167-.462-.441-.477-.821-.476q-7.122.008-14.244,0Zm-17.421-7.93a6.786,6.786,0,0,0,6.764,6.8,6.781,6.781,0,0,0,6.782-6.714,6.754,6.754,0,0,0-6.728-6.821A6.77,6.77,0,0,0-462.048,158.336ZM-467.4,171.91h24.254c0-.455-.033-.879.008-1.3a1.139,1.139,0,0,0-.572-1.167c-.547-.367-1.043-.808-1.563-1.216l-4.372-3.431a8.461,8.461,0,0,1-5.66,2.118,8.515,8.515,0,0,1-5.605-2.114c-2.086,1.639-4.13,3.242-6.167,4.854a.761.761,0,0,0-.308.443C-467.421,170.69-467.4,171.283-467.4,171.91Zm13.055,12.837v13.679h4.589V197.7q0-2.491,0-4.983c0-2.087.009-4.174-.007-6.261a1.584,1.584,0,0,0-1.475-1.7C-452.254,184.712-453.275,184.747-454.345,184.747Zm-1.867,13.689v-13.7h-2.525c-1.475,0-2.053.571-2.054,2.035q0,5.494,0,10.988v.675Z" transform="translate(488 -149.777)"/><path class="a" d="M-457.872,350.382c-1.64,0-3.281,0-4.921,0-.993,0-1.258-.265-1.259-1.238q0-3.323,0-6.646c0-.886.3-1.187,1.192-1.189q5.016-.009,10.033,0c.9,0,1.187.29,1.188,1.186q.006,3.355,0,6.71c0,.909-.264,1.172-1.185,1.175C-454.506,350.386-456.189,350.381-457.872,350.382Zm4.412-7.238h-8.768v5.411h8.768Z" transform="translate(468.143 -308.595)"/><path class="a" d="M-195.219,350.382c-1.661,0-3.323,0-4.984,0-.957,0-1.2-.258-1.206-1.22q0-3.322,0-6.645c0-.933.275-1.206,1.232-1.207q4.984-.007,9.968,0c.931,0,1.213.3,1.214,1.233q0,3.322,0,6.645c0,.9-.28,1.189-1.177,1.193C-191.854,350.387-193.536,350.382-195.219,350.382Zm4.4-7.241h-8.768v5.415h8.768Z" transform="translate(250.354 -308.595)"/><path class="a" d="M-303.974,170c-.662,0-1.075-.35-1.068-.9s.436-.894,1.09-.891,1.063.354,1.056.914S-303.283,170.007-303.974,170Z" transform="translate(336.287 -165.066)"/><path class="a" d="M-281.515,181.232c-.663,0-1.076-.348-1.071-.895s.433-.9,1.087-.894,1.064.351,1.059.911S-280.826,181.234-281.515,181.232Z" transform="translate(317.667 -174.376)"/><path class="a" d="M-298.773,194.4c-.652.006-1.088-.344-1.1-.883s.411-.9,1.065-.9c.687-.006,1.078.306,1.087.868S-298.117,194.393-298.773,194.4Z" transform="translate(332.003 -185.296)"/></svg>