<svg xmlns="http://www.w3.org/2000/svg" width="75.752" height="52.884" viewBox="0 0 75.752 52.884"><defs><style>.a{fill:#a77d40;}</style></defs><path class="a" d="M-569.29,206.84c-.048.435-.119.868-.14,1.3-.151,3.054-.273,6.11-.446,9.163a15.782,15.782,0,0,1-.374,2.554,7.059,7.059,0,0,1-3.934,4.635,25.517,25.517,0,0,1-8.85,2.718c-5.123.71-10.278,1.193-15.408,1.854a76.764,76.764,0,0,1-17.491-.012c-5.884-.587-11.8-.987-17.587-2.25a21.036,21.036,0,0,1-7.8-3.016,6.585,6.585,0,0,1-2.989-5.032c-.278-3.439-.359-6.894-.619-10.335a54.28,54.28,0,0,1,.459-10.844,6.767,6.767,0,0,1,3.913-5.825,41.442,41.442,0,0,1,11.111-3.41c.753-.124,1.5-.288,2.262-.351a.724.724,0,0,0,.774-.674,2.827,2.827,0,0,1,1.617-2,2.378,2.378,0,0,1,3.023.325,4.428,4.428,0,0,1,3.139-1.9,2.537,2.537,0,0,1,2.986,1.794c.217-.058.444-.121.672-.18a3.171,3.171,0,0,1,2.762.4,1.936,1.936,0,0,0,1.361.354,127.761,127.761,0,0,1,17,.313c1.1.095,2.186.351,3.37.548a9.707,9.707,0,0,1,2.727-3.712,5.765,5.765,0,0,1,5.768-1.579c.616.175,1.25.284,1.863.467a3.778,3.778,0,0,1,2.891,4.156c-.088,1.177-.267,2.346-.407,3.537,1.284.658,2.579,1.412,3.945,2a5.534,5.534,0,0,1,3.472,4.207c.383,2.027.536,4.1.792,6.149.039.315.095.628.143.942Zm-2.309-9.951a20.248,20.248,0,0,1-2.8,2.2,28.006,28.006,0,0,1-4.542,1.944,73.706,73.706,0,0,1-21.158,3.424c-3,.093-6.011.012-9.017.019-1.233,0-2.472.122-3.7.035-3.883-.275-7.773-.519-11.637-.97a49.715,49.715,0,0,1-12.867-3.212c-2.026-.817-4.115-1.592-5.371-3.751-.078.389-.152.646-.178.909a59.764,59.764,0,0,0-.312,10.993c.254,3.021.285,6.059.46,9.087.125,2.17.82,4.067,2.877,5.172a15.325,15.325,0,0,0,2.071.967A53.749,53.749,0,0,0-625,226.374q6.733.679,13.473,1.286a37.49,37.49,0,0,0,4.941.268c2.732-.117,5.462-.372,8.182-.669,5.045-.551,10.1-1.08,15.118-1.8a27.081,27.081,0,0,0,8.324-2.473,5.263,5.263,0,0,0,3.161-4.411c.167-1.839.227-3.688.344-5.532a78.768,78.768,0,0,0,.079-14.617C-571.444,197.852-571.54,197.284-571.6,196.889Zm-14.531,1.159c-.565-.818-.871-.894-1.736-.52-.9.388-1.384.06-1.355-.912,0-.123.036-.244.042-.367a1.985,1.985,0,0,0-.817-1.876c-.584-.4-1.056,0-1.545.3a.7.7,0,0,1-1.149-.6c-.029-.342.026-.691.007-1.035a1.679,1.679,0,0,0-2.549-1.546.893.893,0,0,1-1.237-.258,6.267,6.267,0,0,0-.568-.68,1.211,1.211,0,0,0-2.007.2,4.965,4.965,0,0,0-.44,1.009,1.29,1.29,0,0,1-1.838.944c-.357-.1-.7-.222-1.06-.321a1.053,1.053,0,0,0-1.4.625c-.205.473-.336.981-.567,1.439-.161.321-.419.8-.663.822a1.517,1.517,0,0,1-1.031-.523c-1.051-1.143-1.031-1.161-2.5-.512l-.068.028c-1.006.418-1.672-.094-1.523-1.181.044-.316.143-.624.2-.939.215-1.182-.306-1.672-1.465-1.383-.926.232-1.5-.272-1.38-1.221a10.242,10.242,0,0,0,.153-1.318,1.243,1.243,0,0,0-1.459-1.359,6.665,6.665,0,0,0-1.534.474.915.915,0,0,1-1.355-.675,3.762,3.762,0,0,1-.114-.655.82.82,0,0,0-.772-.829,2.776,2.776,0,0,0-2.825,1.2c-.8.983-1.045,1.023-2.038.2a1.241,1.241,0,0,0-1.565-.107,1.84,1.84,0,0,0-.983,1.63,1.474,1.474,0,0,1-1.039,1.54,1.369,1.369,0,0,0-1.022,1.639,1.8,1.8,0,0,1-.005.734c-.157.413-.31.956-.635,1.135-.263.144-.848-.068-1.165-.3-1.1-.791-1.4-.8-2.487-.03a1.029,1.029,0,0,1-.9.13,2.42,2.42,0,0,0-2.96.166,2.284,2.284,0,0,0-.917,1.308c-.1.65.528,1.012,1.083,1.245,1.112.467,2.219.959,3.366,1.323a54.85,54.85,0,0,0,16.617,2.406c4.806.007,9.613-.138,14.417-.05a70.1,70.1,0,0,0,10.327-.536C-589.111,198.636-587.65,198.318-586.129,198.048Zm-42.342-8.341a32.626,32.626,0,0,0-9.315,2.335,33.092,33.092,0,0,0-3.631,2.1,1.069,1.069,0,0,0-.406,1.477,4.279,4.279,0,0,0,2.348,2.346,42.676,42.676,0,0,0,5.082,1.987,82.01,82.01,0,0,0,21.089,3.014c4.877.12,9.763.012,14.641-.138a75.3,75.3,0,0,0,14.284-1.773,36.837,36.837,0,0,0,9.444-3.1,5.512,5.512,0,0,0,1.649-1.219c1.43-1.716,1.118-2.179-.425-3.215-.082-.055-.174-.094-.257-.146a25.017,25.017,0,0,0-8.431-3.242c-1.431-.3-1.92-.093-2.625,1.341.257.03.5.047.73.085a18.5,18.5,0,0,1,6.736,2.062c1.046.625,1.151,1.428.266,2.261a2.937,2.937,0,0,1-.709.527,40.031,40.031,0,0,1-4.481,2.074,54.187,54.187,0,0,1-18.3,2.415c-1.848-.031-3.7-.092-5.545-.089-3.3.007-6.611.139-9.913.059a48.523,48.523,0,0,1-11.655-1.291,30.2,30.2,0,0,1-7.237-2.5,8.891,8.891,0,0,1-1.977-1.5,1.9,1.9,0,0,1-.083-2.679,3.839,3.839,0,0,1,4.557-1.259c.192.08.523.135.643.032a2.508,2.508,0,0,1,3.278-.2Zm37.205,2.3c.147-.634.265-1.134.378-1.636a6.552,6.552,0,0,1,.308-1.335c.322-.689.234-.914-.54-.977-.735-.06-1.47-.155-2.207-.168q-6.874-.125-13.748-.216c-1.252-.018-2.5,0-3.768,0v1.28c2.091.285,2.578,1.714,2.538,3.432a6.868,6.868,0,0,1,1.571.026,6.32,6.32,0,0,1,1.348.7c.367-.866.645-1.91,1.687-2.082a14.039,14.039,0,0,1,2.818.1c.025-.06.116-.259.195-.462a2.764,2.764,0,0,1,4.8-.974.9.9,0,0,0,.733.138,2.749,2.749,0,0,1,2.838.765C-591.976,190.968-591.7,191.409-591.266,192Zm12.508-2.485c.069-1.186.175-2.288.186-3.392a2.392,2.392,0,0,0-2.021-2.678q-1.349-.373-2.722-.658a2.243,2.243,0,0,0-1.018.013,7.879,7.879,0,0,0-4.81,4.284c-.294.55-.06.872.521,1.02.9.231,1.8.482,2.7.738,1.061.3,1.3.214,1.868-.734.49-.824.933-1.682,1.483-2.463a1.762,1.762,0,0,1,2.656-.29,1.166,1.166,0,0,1-.041,1.831,2.138,2.138,0,0,0-.205-.446c-.21-.27-.433-.7-.68-.725a1.2,1.2,0,0,0-.84.556c-.4.61-.7,1.286-1.062,1.973Zm-6.818.821c-1.319-.385-2.521-.731-3.718-1.088-.533-.159-.854.179-.784.576a4.038,4.038,0,0,1-.5,2.9,2.164,2.164,0,0,1,2.063,1.02,19.813,19.813,0,0,1,1.066,2.052,2.032,2.032,0,0,0,.843-.161,1.916,1.916,0,0,0,.714-2.595A2.02,2.02,0,0,1-585.575,190.341Zm.029,6.035a4.652,4.652,0,0,0,.691.778c.237.171.626.373.844.29,1.826-.7,3.63-1.455,5.436-2.206a2.1,2.1,0,0,0,.435-.345,15.988,15.988,0,0,0-6.436-1.9,6.762,6.762,0,0,1-.035,1.8A7.011,7.011,0,0,1-585.546,196.375Z" transform="translate(645.042 -176.68)"/><path class="a" d="M-472.66,164.008c-.76-.22-1.527-.453-1.581-1.409a2.919,2.919,0,0,1,1.608-2.717c1.495-.926,2.913-.338,4.242.417a2.836,2.836,0,0,1,1.346,3.053,3.649,3.649,0,0,1-2.387,3.043,2.21,2.21,0,0,1-3.187-2.092C-472.623,164.209-472.645,164.115-472.66,164.008Zm4.5-1.192a1.678,1.678,0,0,0-1.073-1.695,6.75,6.75,0,0,0-1.34-.39,1.878,1.878,0,0,0-2.439,1.225c-.261.56-.128.812.479.906,1,.155,1.086.265.989,1.221a1.131,1.131,0,0,0,1.551,1.324A2.744,2.744,0,0,0-468.161,162.816Z" transform="translate(505.908 -158.728)"/><path class="a" d="M-517.392,160.253c-.771.143-1.551.317-2.018-.484a2.218,2.218,0,0,1,.176-2.378,3.555,3.555,0,0,1,4.535-1.3,2.414,2.414,0,0,1,.9,3.438,4.658,4.658,0,0,1-1,1.168C-515.939,161.69-516.6,161.572-517.392,160.253Zm1.212.291a8.06,8.06,0,0,0,1.325-1.464,2.017,2.017,0,0,0,.118-1.443c-.25-.7-1.3-.985-2.188-.754s-1.674,1.051-1.629,1.777c.013.212.309.6.427.583A1.538,1.538,0,0,1-516.18,160.544Z" transform="translate(542.922 -155.74)"/><path class="a" d="M-463.134,335.073a5.1,5.1,0,0,1,4.943,4.891c0,3.469-2.454,5.066-5.187,5.158-2.78.094-5.32-2.066-5.282-4.413A5.526,5.526,0,0,1-463.134,335.073Zm-.346,8.661a3.841,3.841,0,0,0,3.341-1.616,3.454,3.454,0,0,0,.061-3.782,3.547,3.547,0,0,0-3.707-1.89,4.5,4.5,0,0,0-3.527,3.622,3.227,3.227,0,0,0,.443,1.94A3.987,3.987,0,0,0-463.479,343.734Z" transform="translate(501.357 -301.829)"/><path class="a" d="M-601.342,335.31c-.036-2.749,1.965-5.234,4.249-5.274a4.822,4.822,0,0,1,4.533,4.67,4.448,4.448,0,0,1-4.267,4.8C-598.951,339.526-601.5,337.789-601.342,335.31Zm1.334-.026a2.8,2.8,0,0,0,3.026,2.9,3.071,3.071,0,0,0,3.03-3.3,3.325,3.325,0,0,0-3.006-3.408C-598.593,331.478-599.985,333.216-600.008,335.283Z" transform="translate(609.449 -297.725)"/><path class="a" d="M-318.891,335.394c.129,2.384-2.386,4.138-4.526,4.1a4.45,4.45,0,0,1-4.254-4.807,4.821,4.821,0,0,1,4.545-4.658C-320.815,330.085-318.836,332.59-318.891,335.394Zm-1.33-.079c-.011-2.1-1.438-3.874-3.091-3.84a3.326,3.326,0,0,0-2.966,3.373,3.074,3.074,0,0,0,3,3.333A2.822,2.822,0,0,0-320.22,335.315Z" transform="translate(386.505 -297.723)"/><path class="a" d="M-545.334,234.082c.07-1.634.5-3.052,2.175-3.556,1.349-.407,2.132.531,2.788,1.613.54-.59,1.087-1.021,1.9-.669.787.342,1.077.929,1.235,2.515a6.635,6.635,0,0,1,1.842.281,6.08,6.08,0,0,1,1.348,1.225,6.787,6.787,0,0,1,1.892.042,3.44,3.44,0,0,1,1.424,1.052c.138.149-.057.606-.1.922-.248-.087-.561-.107-.732-.273-1.068-1.033-1.233-1.058-2.419-.182-.661.488-1.167.293-1.328-.518-.024-.12-.018-.246-.037-.368-.157-1.037-.978-1.356-1.83-.725-.346.256-.666.916-1.134.462-.255-.247-.154-.879-.182-1.34a10.21,10.21,0,0,0-.053-1.53c-.132-.608-.475-.673-.965-.282-1.176.939-1.173.937-1.892-.418-.271-.51-.6-1.124-1.243-.948a2.272,2.272,0,0,0-1.32,1.005,5.767,5.767,0,0,0-.3,1.935,6.52,6.52,0,0,1,.026.734c-.067.292-.168.7-.379.8-.186.091-.6-.1-.812-.28a1.666,1.666,0,0,0-2.576-.013c-.162.155-.208.426-.358.6a4.568,4.568,0,0,1-.589.5c-.161-.208-.449-.414-.453-.624a1.583,1.583,0,0,1,.335-.866A3.167,3.167,0,0,1-545.334,234.082Z" transform="translate(567.139 -216.583)"/><path class="a" d="M-447.537,353.3a2.173,2.173,0,0,1-2.139,2.267,1.967,1.967,0,0,1-1.975-1.974,2.259,2.259,0,0,1,2.191-2.248A1.808,1.808,0,0,1-447.537,353.3Zm-1.94-.969a1.265,1.265,0,0,0-1.263,1.263.984.984,0,0,0,1.043.943,1.254,1.254,0,0,0,1.213-1.317C-448.482,352.6-448.787,352.323-449.477,352.334Z" transform="translate(487.508 -315.086)"/><path class="a" d="M-582.5,347.262c0,1.158-.671,1.977-1.62,1.98a1.5,1.5,0,0,1-1.565-1.578,2.1,2.1,0,0,1,1.855-2.168C-582.987,345.51-582.5,346.156-582.5,347.262Zm-.865-.378c-.077-.08-.26-.436-.514-.5-.456-.108-.849.505-.848,1.232,0,.338-.027.731.491.723C-583.773,348.337-583.379,347.793-583.368,346.884Z" transform="translate(596.69 -310.321)"/><path class="a" d="M-313.1,347.149c.006-.907.384-1.554,1-1.705a1.646,1.646,0,0,1,1.895,1.043,1.938,1.938,0,0,1,.024,2.029,1.483,1.483,0,0,1-1.546.624A1.823,1.823,0,0,1-313.1,347.149Zm2.238.636c-.022-.987-.394-1.532-.876-1.5-.544.031-.489.453-.489.813,0,.628.423,1.23.87,1.142C-311.12,348.19-310.939,347.862-310.861,347.785Z" transform="translate(374.633 -310.239)"/></svg>