<svg xmlns="http://www.w3.org/2000/svg" width="58.171" height="73.89" viewBox="0 0 58.171 73.89"><defs><style>.a{fill:#a77d40;}</style></defs><path class="a" d="M-516.242,62.6c-1.039-.079-2.109-.074-3.143-.069-.447,0-.894,0-1.34,0-.466,0-.931,0-1.374,0h-.807l-.046-.235c-.065-.331-.117-.656-.168-.969a11.113,11.113,0,0,0-.423-1.916,11.708,11.708,0,0,0-.881-1.8c-.152-.271-.309-.55-.458-.837l-.133-.255.254-.135a6.872,6.872,0,0,0,3.385-4c1.179-3.527.109-6.628-2.863-8.295a7.334,7.334,0,0,0-1.593-.585c-.248-.071-.5-.144-.754-.226h-1.623l-.022.013a.982.982,0,0,1-.3.132c-3.349.722-5.434,3.646-5.311,7.447a9.327,9.327,0,0,0,.468,2.263c.1.342.2.7.287,1.043l.049.205-.18.11c-.235.144-.481.29-.732.439-.578.343-1.175.7-1.745,1.092-.676.469-1.349.972-2,1.458-.509.38-1.035.773-1.562,1.149-.413.3-.845.572-1.263.839-.286.183-.582.373-.867.565a3.21,3.21,0,0,0-1.252,4.325q.166.378.329.758c.4.927.816,1.886,1.293,2.786a3.811,3.811,0,0,1,.28,3.051,24.027,24.027,0,0,0-.972,7.932c.122,3.248.185,6.551.246,9.745q.037,1.937.078,3.874c.009.406.009.836,0,1.393a3.828,3.828,0,0,1-.039.42c-.009.072-.019.149-.029.236l-.031.283-.284-.025a38.433,38.433,0,0,0-4.111-.068,29.48,29.48,0,0,1-5.436-.234,18.094,18.094,0,0,0-4.362.005l-.065.005a4.1,4.1,0,0,0-3.651,3.692c-.085,2.752-.072,5.556-.059,8.267l.006,1.319a1.064,1.064,0,0,0,1.053,1.175,7.435,7.435,0,0,0,5.921-1.773,7.358,7.358,0,0,0,2.127-3.643l.059-.214h4.609q4.3,0,8.59,0a6.621,6.621,0,0,0,5.52-2.621,10.242,10.242,0,0,0,.784-1.272c.139-.251.283-.51.45-.792l.412-.7.126.8c.027.17.058.322.085.456a2.8,2.8,0,0,1,.087.737c-.071,1.119-.04,2.266-.01,3.375a22.747,22.747,0,0,1-.348,5.834,10.739,10.739,0,0,0-.061,3.183c.022.29.045.579.061.865a4.535,4.535,0,0,0,.48,1.616,4.439,4.439,0,0,0,3.149,2.344h10.065a1.631,1.631,0,0,0,.813-1.736,4.756,4.756,0,0,1-.015-.529c0-.147,0-.286-.008-.421a6.733,6.733,0,0,0-4.265-6.034,1.064,1.064,0,0,1-.725-1.129c.008-1.781.007-3.593.007-5.345,0-1.678,0-3.414.006-5.121a16.776,16.776,0,0,0-.894-5.61l-.118-.344c-.552-1.6-1.123-3.262-1.55-4.934-.642-2.516-1.235-5.089-1.808-7.576q-.3-1.3-.6-2.6a2.259,2.259,0,0,1-.076-.9c.185-1.025.385-2.027.6-3.088q.107-.539.216-1.087l.046-.235h1.073l2.146,0c1.607.006,3.268.012,4.9-.017a3.975,3.975,0,0,0,3.958-3.843A3.9,3.9,0,0,0-516.242,62.6Zm-36.411,40.348a4.3,4.3,0,0,1-4.13,3.668l-.3.029-.015-.3c0-.073-.008-.145-.013-.218-.01-.159-.021-.323-.021-.489v-.746c0-1.848,0-3.758,0-5.637.005-1.724.751-2.463,2.493-2.468.392,0,.784,0,1.181,0h.848v.291c0,.611.013,1.226.026,1.82A35.21,35.21,0,0,1-552.653,102.949Zm21.151-53a9.267,9.267,0,0,1,.484-1.8,4.033,4.033,0,0,1,4.94-2.358,4.039,4.039,0,0,1,2.782,4.646,10.3,10.3,0,0,1-.428,1.58,3.959,3.959,0,0,1-3.79,2.629h-.01a4.04,4.04,0,0,1-3.1-1.426A4,4,0,0,1-531.5,49.949Zm-9.126,12.809c.124-.56.693-.95,1.633-1.435l.561-.289-.974,4.149-.374-.482C-540.411,63.889-540.751,63.311-540.628,62.758Zm8.116,33.826A4.263,4.263,0,0,1-536.865,101c-1.726.016-3.468.02-5.2.02-1.329,0-2.651,0-3.954-.006q-1.748,0-3.5-.005a1.833,1.833,0,0,1-.282-.028l-.131-.019-.256-.031V97.086h3.53q2.956,0,5.911,0c1.307,0,1.685-.375,1.687-1.668,0-1.369,0-2.737,0-4.126V89.186h6.546v2.308q0,.784,0,1.567C-532.5,94.216-532.5,95.41-532.512,96.585Zm1.8-19.875q-.081.524-.159,1.041c-.112.738-.228,1.5-.349,2.248s-.24,1.465-.361,2.2c-.207,1.251-.422,2.544-.618,3.817-.061.392-.21.792-.856.792h-.014c-1.441-.012-2.858-.01-4.358-.009h-1.9V76.375h8.664Zm9.375,33.691a4.233,4.233,0,0,1,3.489,4.116l.028.316h-.318q-1.1,0-2.179,0c-.7,0-1.413,0-2.128,0-1.072,0-2.152,0-3.218-.019a1.967,1.967,0,0,1-2.013-1.888c-.042-.546-.031-1.091-.021-1.619,0-.227.009-.451.009-.672v-.291h.291c.62,0,1.247-.015,1.855-.03A32.326,32.326,0,0,1-521.337,110.4ZM-524.864,88l.077.244c.156.5.318.991.48,1.483.375,1.143.763,2.325,1.065,3.509a14.153,14.153,0,0,1,.418,3.293c.037,2.546.03,5.133.023,7.636q0,1.379-.005,2.758c0,.135-.008.27-.017.412,0,.071-.009.146-.013.227l-.014.277h-4.435V106.78q0-.991,0-1.983c.005-1.8.011-3.665-.027-5.494a3.989,3.989,0,0,0-.474-1.5,4.4,4.4,0,0,0-.781-1.111,5.927,5.927,0,0,1-1.631-5.066,10.181,10.181,0,0,0,.032-1.6c-.008-.268-.017-.545-.017-.829v-.243Zm-.645-2.259-4.418.8,1.623-9.989h.647Zm8.755-17.592-1.95.006c-2.841.009-5.779.019-8.668-.017a4.3,4.3,0,0,1-4.093-2.8c-.025-.058-.049-.118-.072-.177s-.057-.146-.091-.217a1.153,1.153,0,0,0-1.521-.729,1.171,1.171,0,0,0-.628,1.572,6.608,6.608,0,0,0,1.762,2.8,6.813,6.813,0,0,0,3.971,1.851c.145.017.289.038.444.06l.535.075-.058.3c-.043.225-.084.449-.125.67-.113.618-.22,1.2-.368,1.792a.979.979,0,0,1-.785.654c-1.481.01-2.975.013-4.462.013-1.471,0-2.936,0-4.376-.006l-1.2,0a.511.511,0,0,1-.216-.056c-.021-.009-.047-.021-.08-.033l-.22-.083.034-.232c.009-.058.016-.117.023-.178a4.3,4.3,0,0,1,.072-.446l.174-.753c.834-3.6,1.7-7.323,2.552-10.982.648-2.772,2.306-4.381,4.8-4.653a5.131,5.131,0,0,1,4.322,1.563,5.755,5.755,0,0,1,1.423,4.951,1.68,1.68,0,0,0,.186,1.37,1.638,1.638,0,0,0,1.29.406c1.558.007,3.144.006,4.676,0h2.084c.057,0,.117,0,.175,0,.163,0,.331,0,.5.009a1.687,1.687,0,0,1,1.722,1.7A1.674,1.674,0,0,1-516.754,68.146Z" transform="translate(570.754 -43.276)"/><path class="a" d="M-506.683,535.4l-.167-.128a1.06,1.06,0,0,0-.363-.022c-.057,0-.111,0-.165,0-4.678,0-10.837-.005-17,0h-.124a1.314,1.314,0,0,0-.6.075c-.469.38-.724.693-.757.932a1.794,1.794,0,0,0,.326.878c.052.094.1.186.15.276a.971.971,0,0,0,.175.1c.037.019.074.038.112.059h18.452l.1-.06a.822.822,0,0,0,.17-.116c.044-.1.1-.206.151-.314a1.768,1.768,0,0,0,.288-.9C-506,535.922-506.377,535.632-506.683,535.4Z" transform="translate(542.045 -463.687)"/><path class="a" d="M-559.971,535.386a1.136,1.136,0,0,0-1.022.991c-.07.367-.016.808.9,1.312h.559l.048-.035c.09-.066.18-.132.269-.2a1.106,1.106,0,0,0,.415-1.33A1.158,1.158,0,0,0-559.971,535.386Z" transform="translate(572.083 -463.799)"/><path class="a" d="M-616.591,311.7a1.017,1.017,0,0,0-.265-.774,2.1,2.1,0,0,0-1.5-.431h-15.335q-.951,0-1.9,0c-.72,0-1.114.183-1.361.625a1.049,1.049,0,0,0-.024,1.074,1.4,1.4,0,0,0,1.241.621c2.07.012,4.176.01,6.212.008q1.33,0,2.659,0h1.216q3.647,0,7.294,0C-616.822,312.821-616.6,312.254-616.591,311.7Z" transform="translate(637.11 -271.626)"/><path class="a" d="M-549.586,256.781c.859-.008,1.377-.432,1.385-1.135a1.078,1.078,0,0,0-.307-.786,1.463,1.463,0,0,0-1.049-.393c-3.03-.022-6.18-.023-9.36,0a1.467,1.467,0,0,0-1.079.388,1.107,1.107,0,0,0-.288.828c.032.9.785,1.1,1.411,1.1,1.071.009,2.16.007,3.214,0l1.358,0h.032l1.388,0C-551.8,256.79-550.684,256.792-549.586,256.781Z" transform="translate(571.46 -223.736)"/><path class="a" d="M-599.114,256.967a1.141,1.141,0,0,0,.808-.362,1.1,1.1,0,0,0,.31-.8,1.2,1.2,0,0,0-1.176-1.123,1.152,1.152,0,0,0-1.107,1.18,1.12,1.12,0,0,0,.345.8A1.138,1.138,0,0,0-599.114,256.967Z" transform="translate(605.637 -223.933)"/></svg>