<svg xmlns="http://www.w3.org/2000/svg" width="68.11" height="68.106" viewBox="0 0 68.11 68.106"><defs><style>.a{fill:#a77d40;}</style></defs><path class="a" d="M-490,172.821a1.44,1.44,0,0,1,1.4-.676c3.258.023,6.517.011,9.776.011h.8v-.821q0-12.469,0-24.938c0-.2-.01-.4,0-.6a1.019,1.019,0,0,1,1-1.031,1,1,0,0,1,.982,1.042c.02.727,0,1.456,0,2.228h18.677V129.412h-18.675v.743q0,5.553,0,11.106a3.582,3.582,0,0,1-.018.663.932.932,0,0,1-.9.831.93.93,0,0,1-1.033-.748,2.743,2.743,0,0,1-.043-.726q0-7.881,0-15.761v-.865c-1.153,0-2.253-.01-3.353,0-.565.007-1.086-.061-1.305-.674s.138-.988.58-1.348c1.653-1.34,3.291-2.7,4.935-4.048.034-.028.069-.055.1-.083.639-.506,1.245-.512,1.632-.017.372.477.246,1.052-.352,1.547-.82.678-1.645,1.349-2.467,2.025-.183.151-.361.307-.648.55h24.475l-12.243-10.054-5.214,4.278c-.171.141-.341.283-.519.416a1.019,1.019,0,0,1-1.48-.075,1,1,0,0,1,.226-1.462c1.826-1.513,3.656-3.021,5.5-4.506a1.17,1.17,0,0,0,.5-1.062c-.035-.974-.017-1.95-.008-2.926.006-.724.387-1.169.981-1.174s1,.443,1.009,1.156c.013,1.02-.028,2.041.023,3.058a1.339,1.339,0,0,0,.416.874q6.735,5.574,13.5,11.108c.24.2.478.4.718.592a.883.883,0,0,1,.316,1.174,1.484,1.484,0,0,1-.983.618c-1.08.08-2.17.029-3.256.032-.106,0-.211.021-.346.035v7.746c.259.012.513.023.767.037a3.082,3.082,0,0,1,2.853,1.941.749.749,0,0,0,.843.516c1.44-.021,2.881-.011,4.322,0,.489,0,.945.211,1,.695a1.74,1.74,0,0,1-.369,1.1c-.124.17-.524.187-.8.19-1.526.017-3.052.008-4.636.008v4.207a27.363,27.363,0,0,1,2.925.018,7.245,7.245,0,0,0,5.491-1.567c1.077-.84,2.307-1.485,3.467-2.221.16-.1.311-.218.621-.437-1.236,0-2.288,0-3.34,0-.823,0-1.3-.387-1.275-1.017.02-.6.487-.974,1.266-.975,2.638,0,5.276-.019,7.914,0a4.986,4.986,0,0,1,4.886,3.591,4.99,4.99,0,0,1-2.238,5.693c-1.49.958-2.994,1.892-4.551,2.874a5.084,5.084,0,0,0,.415.331c1.384.877,2.793,1.717,4.153,2.63a4.963,4.963,0,0,1-.078,8.6c-1.468.946-2.952,1.868-4.524,2.861.293.2.519.352.752.5,1.236.781,2.476,1.555,3.71,2.338a4.977,4.977,0,0,1,1.449,7.511c-.047.065-.087.135-.194.3h2.86c1.441,0,2.882.01,4.323,0,.569-.006,1.082.065,1.3.675s-.147,1-.6,1.325H-490Zm41.43-29.7c-.917,0-1.646.02-2.374-.008a.616.616,0,0,0-.679.459,3.148,3.148,0,0,1-3.02,2c-.195,0-.389.019-.619.031v26.506h17.182l-4.842-3.065c-1.852-1.172-3.757-2.269-5.544-3.532a4.917,4.917,0,0,1,.1-8.092c.635-.443,1.3-.836,1.959-1.251l2.9-1.839c-.252-.176-.423-.305-.6-.42-1.42-.9-2.866-1.766-4.257-2.711a4.722,4.722,0,0,1-2.139-4.319A5.16,5.16,0,0,1-448.57,143.123Zm3.077,7.093a9.314,9.314,0,0,0,1.638-.639q5.641-3.507,11.236-7.087a3.626,3.626,0,0,0,1.122-1.185,2.924,2.924,0,0,0-.556-3.538,2.95,2.95,0,0,0-3.619-.391c-1.554.939-3.079,1.924-4.615,2.892-2.285,1.441-4.575,2.873-6.849,4.331a2.934,2.934,0,0,0-1.274,3.353A3.205,3.205,0,0,0-445.493,150.216Zm-11.866,21.923V150.122h-4.752v22.017Zm8.841-10.987c-.012,2.74,2.5,4.146,4.61,2.852,3.832-2.35,7.624-4.764,11.411-7.185a2.947,2.947,0,0,0,.9-4.092,2.945,2.945,0,0,0-4.079-.946q-5.783,3.593-11.523,7.256A2.682,2.682,0,0,0-448.518,161.152ZM-476.011,172.1h4.784V150.132h-4.784Zm18.664-47.4h-18.642v2.634h18.642Zm22.772,40.765a3,3,0,0,0-2.986,3,3.561,3.561,0,0,0,3.415,3.248,3.005,3.005,0,0,0,3.008-2.984A3.459,3.459,0,0,0-434.575,165.465Zm-5,3.352a5.231,5.231,0,0,1,3.191-5.057c-.546-.345-1-.648-1.474-.919a.474.474,0,0,0-.407,0c-1.8,1.112-3.584,2.238-5.417,3.389Zm-15.7-34.276v8.973c1.377.19,1.912-.254,1.916-1.574q.009-2.92,0-5.84C-453.359,134.777-453.914,134.322-455.27,134.541Zm-8.921,25.095h-4.961v2.775h4.961Zm-4.969,7.641h4.949v-2.79h-4.949Zm25.484-15.448c.645.408,1.25.8,1.871,1.17a.473.473,0,0,0,.409,0c1.8-1.113,3.583-2.241,5.407-3.388-.613-.388-1.181-.773-1.776-1.108a.678.678,0,0,0-.578,0C-440.108,149.581-441.857,150.687-443.677,151.829ZM-464.2,157.55v-2.79h-4.93v2.79Zm.008,11.825h-4.954v2.746h4.954Zm-4.956-16.685h4.932v-2.61c-1.561,0-3.065,0-4.568,0-.108,0-.215.02-.364.035Z" transform="translate(490 -106.046)"/><path class="a" d="M-383.482,259.986a5.325,5.325,0,0,1,5.351,5.3,5.367,5.367,0,0,1-5.3,5.372,5.385,5.385,0,0,1-5.392-5.353A5.35,5.35,0,0,1-383.482,259.986Zm-.037,8.678a3.365,3.365,0,0,0,3.391-3.288,3.325,3.325,0,0,0-3.266-3.395,3.345,3.345,0,0,0-3.432,3.3A3.386,3.386,0,0,0-383.519,268.664Z" transform="translate(406.803 -232.629)"/><path class="a" d="M-369.982,177.868c-.485,0-.971.024-1.454-.006a.956.956,0,0,1-.958-.975.911.911,0,0,1,.893-.97c1.033-.045,2.072-.047,3.105.006a.883.883,0,0,1,.854,1,.9.9,0,0,1-.919.939c-.506.027-1.014.006-1.521.006Z" transform="translate(393.295 -163.472)"/></svg>