<svg xmlns="http://www.w3.org/2000/svg" width="43.523" height="48.459" viewBox="0 0 43.523 48.459"><defs><style>.a{fill:#a77d40;}</style></defs><path class="a" d="M-519.04,124.043a2.571,2.571,0,0,1-1.947-2.24,2.351,2.351,0,0,1,1.779-2.682c1.26-.283,2.532-.507,3.8-.759.167-.033.334-.073.541-.119l-2.074-10.627c-3.411-.376-5.324-2.669-6.892-5.354a22.125,22.125,0,0,1-2.591-7.9,48.211,48.211,0,0,1-.38-11.6c.142-1.631.175-1.675,1.8-1.987q3.967-.764,7.93-1.548c.8-.157,1.092-.033,1.466.667a44.169,44.169,0,0,1,4.846,14.143,16.928,16.928,0,0,1-.985,9.561,6.74,6.74,0,0,1-3.059,3.482.47.47,0,0,0-.215.379q.981,5.128,2,10.249a.962.962,0,0,0,.08.169c1.208-.237,2.424-.47,3.638-.716a2.942,2.942,0,0,1,2.16.154,2.732,2.732,0,0,1,1.245,2.627,2.317,2.317,0,0,1-1.911,2.021c-3.2.642-6.4,1.259-9.6,1.888-.26.051-.517.125-.775.188Zm6.338-30.231a45.235,45.235,0,0,0-4.385-12.643l-7.794,1.523a45.921,45.921,0,0,0,.292,11.12Zm.219,1.955h-11.747a19.034,19.034,0,0,0,2.385,6.108,9.233,9.233,0,0,0,2.892,3.132,3.491,3.491,0,0,0,2.507.613,3.8,3.8,0,0,0,2.686-2.251A14.311,14.311,0,0,0-512.484,95.768Zm4.695,23.838c-.013-.508-.274-.744-.75-.652q-5.03.979-10.059,1.964c-.4.078-.572.283-.475.7.107.46.255.567.734.474q2.852-.552,5.7-1.106,2.133-.415,4.265-.833C-508.059,120.094-507.78,120-507.789,119.606Z" transform="translate(549.408 -75.584)"/><path class="a" d="M-751.561,124.062c-1.232-.253-2.462-.513-3.7-.758-2.224-.442-4.451-.868-6.674-1.315a2.178,2.178,0,0,1-1.864-1.831,2.589,2.589,0,0,1,.875-2.6,2.344,2.344,0,0,1,2.05-.454c1.344.266,2.689.525,4.112.8l1.96-10.545a17.982,17.982,0,0,1-1.85-1.5,10,10,0,0,1-2.387-5.31,22.327,22.327,0,0,1,.5-9.415,47.411,47.411,0,0,1,4.252-11.181c.405-.759.67-.872,1.534-.7q4.242.829,8.486,1.649c.825.159,1.038.414,1.131,1.255a46.62,46.62,0,0,1-.108,10.852,23.519,23.519,0,0,1-3.2,9.943,10.056,10.056,0,0,1-4.271,4.094,15.2,15.2,0,0,1-1.9.532c-.133.039-.319.165-.34.277-.653,3.449-1.289,6.9-1.937,10.408l2.967.586c.417.082.837.152,1.251.249a2.337,2.337,0,0,1,1.936,2.2,2.535,2.535,0,0,1-1.768,2.663,1.908,1.908,0,0,0-.207.1Zm-5.886-27.386h.571c3.5,0,7-.009,10.5.012.435,0,.589-.131.678-.543a42.33,42.33,0,0,0,.917-8.967c0-1.478-.1-2.957-.156-4.458l-7.864-1.535A40.985,40.985,0,0,0-757.447,96.676Zm.113,1.927a10.416,10.416,0,0,0,1.722,5.563,3.133,3.133,0,0,0,4.1,1.164,6.587,6.587,0,0,0,2.347-1.868,15.69,15.69,0,0,0,2.735-4.859Zm-3.972,20.354c-.512-.046-.581.278-.634.6-.069.418.2.548.545.615q4.962.961,9.922,1.925c.549.106.7.006.807-.488.1-.466-.156-.608-.555-.685-2.4-.461-4.79-.934-7.185-1.4C-759.395,119.329-760.384,119.137-761.306,118.958Z" transform="translate(763.851 -75.602)"/><path class="a" d="M-545.007,41.276a1.145,1.145,0,0,1,.759,1.224c-.019.914.014,1.828-.012,2.742a.915.915,0,0,1-1.4.862,1.273,1.273,0,0,1-.469-.85c-.058-.989-.017-1.984-.023-2.977a1.159,1.159,0,0,1,.669-1Z" transform="translate(566.762 -41.276)"/><path class="a" d="M-589.373,42.857a3.178,3.178,0,0,1,.742.575,21.6,21.6,0,0,1,1.137,1.852.949.949,0,0,1-.329,1.352.941.941,0,0,1-1.3-.4c-.38-.6-.76-1.2-1.1-1.819A1.03,1.03,0,0,1-589.373,42.857Z" transform="translate(606.79 -42.707)"/><path class="a" d="M-509.065,44.781a7.944,7.944,0,0,1-1.7,2.593.754.754,0,0,1-1-.121.781.781,0,0,1-.284-.969c.435-.8.906-1.583,1.418-2.336a.789.789,0,0,1,1-.194C-509.268,43.9-509.073,44.2-509.065,44.781Z" transform="translate(535.952 -43.438)"/><path class="a" d="M-428.8,153.028a.88.88,0,0,1,.911.618c.4,1.208.8,2.421,1.153,3.643a.923.923,0,0,1-.65,1.15.912.912,0,0,1-1.15-.643c-.39-1.18-.772-2.362-1.13-3.552A.908.908,0,0,1-428.8,153.028Z" transform="translate(461.339 -142.451)"/><path class="a" d="M-443.068,116.9a.962.962,0,0,1-.941.934.963.963,0,0,1-.948-.974.946.946,0,0,1,.965-.9A.942.942,0,0,1-443.068,116.9Z" transform="translate(475.14 -108.888)"/><path class="a" d="M-594.8,137.051c-.069,1.068-.129,2.136-.21,3.2a.932.932,0,0,1-.97.947.949.949,0,0,1-.917-1.049q.063-2.855.152-5.709a.953.953,0,0,1,.917-1,.949.949,0,0,1,.963.964c.037.88.01,1.763.01,2.644Z" transform="translate(612.7 -124.718)"/><path class="a" d="M-600.66,236.254a.941.941,0,0,1-.913.952.955.955,0,0,1-.962-.957.964.964,0,0,1,.944-.932A.946.946,0,0,1-600.66,236.254Z" transform="translate(617.804 -216.951)"/></svg>