<svg xmlns="http://www.w3.org/2000/svg" width="57.177" height="57.156" viewBox="0 0 57.177 57.156"><defs><style>.a{fill:#a77d40;}</style></defs><path class="a" d="M-579.009,188.4a7.855,7.855,0,0,1,.737-1.418,2.818,2.818,0,0,1,3.094-.81,2.845,2.845,0,0,1,1.871,2.6c.021.967.018,1.935,0,2.9a.647.647,0,0,0,.363.672c.6.329,1.18.7,1.746,1.038-.14-1.4-.386-2.781-.4-4.163a18.884,18.884,0,0,1,8.633-16.566,38.535,38.535,0,0,1,4.461-2.388c.316-.161.478-.288.476-.681-.02-3.144-.01-6.289-.012-9.434,0-.619-.213-.769-.841-.834a3.9,3.9,0,0,0-3.141.93,8.689,8.689,0,0,1-1.157.776.98.98,0,0,1-1.32-.141c-.6-.588-1.195-1.174-1.774-1.779a.934.934,0,0,1-.114-1.357c1.536-2.171,3.072-4.343,4.651-6.483a1.454,1.454,0,0,1,.988-.484c1.17-.059,2.344-.013,3.516-.027a1.073,1.073,0,0,1,1.06.663c.453.916.924,1.823,1.366,2.744a.6.6,0,0,0,.624.412q4.718-.022,9.436,0a.56.56,0,0,0,.591-.375c.423-.889.892-1.757,1.309-2.648a1.211,1.211,0,0,1,1.262-.8c.8.033,1.6.024,2.4,0a1.191,1.191,0,0,1,1.111.6q1.767,2.677,3.559,5.338a1.142,1.142,0,0,1,.012,1.437c-.573.825-1.113,1.672-1.678,2.5a1.01,1.01,0,0,1-1.615.315c-.7-.454-1.389-.935-2.1-1.38a2.056,2.056,0,0,0-.663-.231c-1.133-.242-1.554.73-2.2,1.317-.064.058-.058.21-.058.318q0,5.777.01,11.555a1.387,1.387,0,0,0,.08.192,2.6,2.6,0,0,0,.747-.342c.733-.686,1.423-1.418,2.142-2.121a1.006,1.006,0,0,1,1.78.224c.878,1.446,1.762,2.889,2.6,4.361a6.171,6.171,0,0,1,.394,1.349l1.4-.569.765,1.725c-.646.278-1.281.53-1.895.828-.164.08-.377.3-.372.452a5.471,5.471,0,0,1-.883,3.681l3.021.881L-533.53,185c-1.057-.3-2.077-.562-3.083-.873a1.064,1.064,0,0,0-1.141.213,21.753,21.753,0,0,1-2.183,1.4,3.354,3.354,0,0,0,.848.251c3.034.017,6.068-.038,9.1.023a8.388,8.388,0,0,1,8.071,9.29,16.951,16.951,0,0,1-.859,3.209,1.764,1.764,0,0,1-.808.846c-1.22.665-2.474,1.267-3.716,1.892h-43.444c-2.5-1.568-5-3.13-7.483-4.713a5.29,5.29,0,0,1-.782-.758Zm24.827-12.142a2.41,2.41,0,0,1,.5-1.934c.768-1.252,1.511-2.519,2.271-3.776.542-.9,1.149-.977,1.888-.248.7.692,1.393,1.4,2.1,2.087a.751.751,0,0,0,.4.254c.756.025,1.513.012,2.31.012v-.67c0-3.405-.008-6.81,0-10.215.007-2.222-.184-1.593,1.329-3.251a3.09,3.09,0,0,1,2.734-1.128,3.192,3.192,0,0,1,1.816.562c.465.356.976.653,1.484.988.272-.4.492-.77.755-1.1a.591.591,0,0,0,.014-.827,37.9,37.9,0,0,1-2.186-3.3,1.822,1.822,0,0,0-2.049-1.066.717.717,0,0,0-.669.441c-.424.889-.888,1.758-1.312,2.647a1.185,1.185,0,0,1-1.189.74q-5.5-.015-11,0a1.154,1.154,0,0,1-1.149-.712c-.428-.887-.9-1.752-1.311-2.647a.687.687,0,0,0-.769-.457c-.594.028-1.193-.025-1.785.024a1.016,1.016,0,0,0-.664.349c-1.19,1.618-2.35,3.258-3.517,4.893-.082.115-.145.243-.206.348l.733.783c.674-.448,1.311-.9,1.978-1.3a2.1,2.1,0,0,1,.926-.316c.835-.043,1.675-.03,2.512-.011a2.6,2.6,0,0,1,2.1,2.126c.008,3.665,0,7.331.005,11a1.2,1.2,0,0,1-.823,1.183A41.312,41.312,0,0,0-561.53,174a17,17,0,0,0-7.214,9.012,18.094,18.094,0,0,0,.042,11.824c.169.524.31,1.026-.195,1.423s-.971.147-1.436-.135c-1.35-.821-2.7-1.652-4.069-2.432a1.438,1.438,0,0,1-.808-1.447c.035-1.115.018-2.233,0-3.349a.912.912,0,0,0-.87-.973.934.934,0,0,0-1.005.84,2.548,2.548,0,0,0-.022.445c0,1.768.01,3.535-.01,5.3a.76.76,0,0,0,.423.752c2.059,1.266,4.1,2.562,6.16,3.826a1.774,1.774,0,0,0,.881.24q8.347.021,16.694.01h.6a1.851,1.851,0,0,0-1.8-1.893c-.669-.025-1.34-.02-2.01-.007-1.33.026-1.9.089-1.894-1.854a6.557,6.557,0,0,0-5.233-6.558,19.932,19.932,0,0,0-2.343-.242v-1.81a8.679,8.679,0,0,1,5.75,1.48,8.635,8.635,0,0,1,3.771,7.093c.74,0,1.427-.025,2.111.006a3.673,3.673,0,0,1,2.666,1.328,4.246,4.246,0,0,1,.938,2.411h1.852v-5.7h-5.578v-1.914h5.585v-5.7a20.136,20.136,0,0,1-2.454-1.174,1.364,1.364,0,0,0-1.46-.142c-1.088.459-2.21.838-3.352,1.262l-.661-1.776,3.416-1.294a5.583,5.583,0,0,1-1.172-4.024c.053-.412-.132-.591-.5-.727-.6-.226-1.181-.506-1.79-.772l.747-1.73Zm14.99-4c-.616.633-1.182,1.2-1.729,1.781a1.555,1.555,0,0,1-1.233.523q-2.539-.03-5.08,0a1.548,1.548,0,0,1-1.236-.514c-.556-.6-1.131-1.173-1.736-1.8-.706,1.174-1.4,2.231-1.98,3.349a2.277,2.277,0,0,0-.089,1.351c.032.181.449.315.708.431.808.361,1.625.7,2.471,1.068l-.746,1.739-2.438-1.027a3.543,3.543,0,0,0,.835,2.678.441.441,0,0,0,.641.193c.629-.26,1.273-.482,1.956-.736l.665,1.767-1.117.443a5.894,5.894,0,0,0,1.541.527c.932.187,1.147.425,1.147,1.387q0,6.614,0,13.228v.642h2.9V192.69h1.9V199.3h3.375a3,3,0,0,0-.116-.413c-.631-1.382-.4-2.847-.422-4.288a.886.886,0,0,1,.13-.478A26.042,26.042,0,0,1-537.1,191.6a2.657,2.657,0,0,1,3.95.092,2.711,2.711,0,0,1,.275,3.265c-.215.4-.134.582.339.574.632-.011,1.265,0,1.9,0h2.1v1.9c-1.235,0-2.445-.071-3.642.021a2.77,2.77,0,0,1-2.568-1.107,1.129,1.129,0,0,1-.213-1.465c.154-.318.327-.626.472-.948a.836.836,0,0,0-.3-1.16.815.815,0,0,0-1.111.336c-.366.515-.716,1.042-1.053,1.577a1.025,1.025,0,0,0-.122.474,8.119,8.119,0,0,0,.517,3.715.614.614,0,0,0,.674.47c1.935-.022,3.874-.082,5.8.012a8.974,8.974,0,0,0,4.362-.994,3.073,3.073,0,0,0,1.864-2.626c.03-.2.059-.4.083-.608a6.591,6.591,0,0,0-6.423-7.227c-3.108,0-6.215.008-9.323-.012a1.724,1.724,0,0,1-1.038-.272,21.2,21.2,0,0,1-1.983-1.958.908.908,0,0,1,.488-1.529c.159-.047.333-.046.491-.094.652-.2,1.3-.406,1.949-.61l-.047-.146-.527-.227.522-1.783c.5.145.946.286,1.4.392.14.033.387.023.441-.061a2.935,2.935,0,0,0,.676-2.426l-2.415,1.014-.745-1.739c.976-.42,1.895-.812,2.809-1.215.143-.063.374-.174.377-.268a2.967,2.967,0,0,0-.09-1.361C-537.792,174.494-538.488,173.436-539.192,172.264Z" transform="translate(579.009 -144.087)"/><path class="a" d="M-579.009,122.6c.2-1.017.314-2.057.606-3.046a19.762,19.762,0,0,1,5.935-9.083,16.8,16.8,0,0,1,7.813-4.084,11.6,11.6,0,0,1,9.669,2.068c1.6,1.164,3.06,2.531,4.7,3.907a9.506,9.506,0,0,1,.622-.739,21.51,21.51,0,0,1,5.873-4.384,11.712,11.712,0,0,1,8.748-.536c5.011,1.523,8.512,4.879,11.09,9.3a16.409,16.409,0,0,1,1.515,12.622,30.214,30.214,0,0,1-5.043,10.547c-1.065,1.475-2.272,2.848-3.415,4.268-.114.142-.231.283-.369.452l-1.4-1.3c.587-.686,1.173-1.35,1.738-2.032a33.553,33.553,0,0,0,5.919-9.975,17.344,17.344,0,0,0,.947-9.691,15.489,15.489,0,0,0-2.688-5.771,17.166,17.166,0,0,0-7.487-6.149,10.356,10.356,0,0,0-10.809,1.236c-1.579,1.2-3,2.612-4.464,3.951-.728.664-1.18.663-1.91-.009-1.477-1.358-2.9-2.79-4.488-4.007a9.555,9.555,0,0,0-6.65-2.141,13.89,13.89,0,0,0-7.836,3.179,18.042,18.042,0,0,0-6.178,8.887,15.217,15.217,0,0,0,.054,8.265,30.018,30.018,0,0,0,5.1,10.276c.273.375.556.743.876,1.169l-1.484,1.172c-.309-.4-.607-.775-.888-1.161a31.071,31.071,0,0,1-5.695-12.114c-.162-.8-.268-1.6-.4-2.405Z" transform="translate(579.009 -106.09)"/><path class="a" d="M-396.143,242.147h-3.728v-1.852h3.728Z" transform="translate(426.591 -220.277)"/><path class="a" d="M-410.752,216.668h-1.83v-1.84h1.83Z" transform="translate(437.406 -198.609)"/><path class="a" d="M-372.487,214.814v1.825h-1.835v-1.825Z" transform="translate(404.853 -198.597)"/><path class="a" d="M-372.512,325.233h-1.817v-1.847h1.817Z" transform="translate(404.859 -290.974)"/><path class="a" d="M-336.166,325.288v-1.811h1.849v1.811Z" transform="translate(372.389 -291.052)"/><path class="a" d="M-355.1,342.612h1.836v1.831H-355.1Z" transform="translate(388.498 -307.332)"/></svg>