<svg xmlns="http://www.w3.org/2000/svg" width="48.642" height="49.18" viewBox="0 0 48.642 49.18"><defs><style>.a{fill:#a77d40;}</style></defs><path class="a" d="M-422.421,155.142h-47.266a1.287,1.287,0,0,1-.688-1.3q.019-21.393.01-42.786c0-.112,0-.224,0-.336a.927.927,0,0,1,.907-.931c.175-.014.352-.008.528-.008h25.18c0-.389-.008-.708,0-1.026a2.875,2.875,0,0,1,2.661-2.786,2.842,2.842,0,0,1,3.018,2.382c.071.453.069.917.1,1.4h1.831c0-.337-.013-.653,0-.968a2.878,2.878,0,0,1,2.926-2.82,2.872,2.872,0,0,1,2.813,2.928c0,.282,0,.564,0,.889h.582q3.386,0,6.772,0c1,0,1.3.29,1.3,1.275q0,21.393.01,42.786A1.291,1.291,0,0,1-422.421,155.142Zm-40.158-7.808h33.024v-5.307a3.021,3.021,0,0,1-2.848-.555,2.932,2.932,0,0,1-3.793.011.766.766,0,0,0-.136.06,2.867,2.867,0,0,1-3.489.081.612.612,0,0,0-.518.072,2.887,2.887,0,0,1-4.45-2.115,1.023,1.023,0,0,1,.845-1.239c.553-.067.974.314,1.071.971a.98.98,0,0,0,.93.927.969.969,0,0,0,.957-.9c.013-.079.011-.16.027-.238a.942.942,0,0,1,.874-.762.911.911,0,0,1,.944.6,2.686,2.686,0,0,1,.1.514.958.958,0,0,0,.905.785.94.94,0,0,0,.925-.756c.03-.141.038-.287.075-.425a.948.948,0,0,1,.953-.722.949.949,0,0,1,.894.737c.034.14.042.285.075.426a.937.937,0,0,0,.889.74.959.959,0,0,0,.921-.707c.028-.107.023-.222.041-.333a.976.976,0,0,1,.99-.863.962.962,0,0,1,.923.876c.014.095.016.192.039.285a.962.962,0,0,0,.895.742.926.926,0,0,0,.925-.755,3.518,3.518,0,0,0,.053-.715q0-10.517,0-21.034v-.518h-4.671v.583q0,4.826,0,9.653a4.271,4.271,0,0,1-.021.575.921.921,0,0,1-.926.8.968.968,0,0,1-.98-1.067c-.014-.891,0-1.782,0-2.688h-5.688c0,.943.01,1.852,0,2.761a.937.937,0,0,1-1.042.991c-.547-.04-.878-.449-.878-1.11q0-4.995,0-9.989V117.2h-10.532a3.024,3.024,0,0,1-.527-.02.945.945,0,0,1-.789-1,.933.933,0,0,1,.887-.9c.143-.012.288-.006.432-.006h10.49v-3.535h-24.621v41.445h44.7V111.735h-10.465v3.537H-429c1.129,0,1.395.262,1.395,1.374q0,15.631,0,31.263c0,1.131-.257,1.391-1.375,1.391h-34.15a3.906,3.906,0,0,1-.575-.015.876.876,0,0,1-.8-.775,4.183,4.183,0,0,1-.025-.671q0-14.839,0-29.678c0-.608-.009-1.217,0-1.825a.949.949,0,0,1,1.073-1.061c.912-.007,1.825,0,2.738,0,.721,0,1.129.348,1.134.948,0,.616-.416.972-1.163.976-.6,0-1.207,0-1.825,0-.012.131-.026.207-.026.284q0,3.194,0,6.387a2.107,2.107,0,0,0,.028.383.926.926,0,0,0,.916.763.906.906,0,0,0,.905-.711c.034-.14.041-.286.075-.426a.925.925,0,0,1,.98-.74c.528.023.813.326.926,1.03a.9.9,0,0,0,.654.8.842.842,0,0,0,.988-.3,1.555,1.555,0,0,0,.22-.616.969.969,0,0,1,.985-.918.931.931,0,0,1,.941.9c.1.652.429.988.967.979s.838-.334.936-1.011a.91.91,0,0,1,.781-.85c.617-.111,1.042.263,1.145.983a.935.935,0,0,0,1.328.8,1.08,1.08,0,0,0,.564-.938.921.921,0,0,1,1.07-.851.953.953,0,0,1,.833,1.052,2.864,2.864,0,0,1-2.455,2.724,2.983,2.983,0,0,1-2.312-.666,2.944,2.944,0,0,1-3.816.005,2.95,2.95,0,0,1-3.825-.01,3,3,0,0,1-2.818.575Zm20.767-32.094h5.635V111.75h-5.635Zm5.643,4.039v-2.056h-5.616v2.056Zm.008,1.989h-5.632v1.8h5.632Zm-5.658-11.522h1.892c-.052-.619.177-1.262-.445-1.692a.842.842,0,0,0-1.03.009C-442.016,108.5-441.78,109.142-441.819,109.747Zm7.6,0h1.9c-.035-.64.212-1.347-.494-1.705a1.146,1.146,0,0,0-.932.028C-434.41,108.436-434.156,109.118-434.215,109.742Z" transform="translate(470.375 -105.962)"/><path class="a" d="M-383.141,305.78a6.7,6.7,0,0,1-6.848,6.623,6.7,6.7,0,0,1-6.513-6.763,6.668,6.668,0,0,1,6.868-6.588A6.687,6.687,0,0,1-383.141,305.78Zm-1.94-.066a4.738,4.738,0,0,0-4.775-4.736,4.736,4.736,0,0,0-4.708,4.752,4.755,4.755,0,0,0,4.773,4.746A4.761,4.761,0,0,0-385.08,305.713Z" transform="translate(405.98 -274.278)"/><path class="a" d="M-377.537,179.97a.941.941,0,0,1-.985-.95.994.994,0,0,1,.941-.966.973.973,0,0,1,.977.971A.923.923,0,0,1-377.537,179.97Z" transform="translate(390.307 -168.805)"/><path class="a" d="M-363.854,334.587a2.868,2.868,0,0,1-2.861-2.87,2.852,2.852,0,0,1,2.855-2.821A2.855,2.855,0,0,1-361,331.76,2.867,2.867,0,0,1-363.854,334.587Zm-.008-3.759a.909.909,0,0,0-.914.9.933.933,0,0,0,.9.927.936.936,0,0,0,.939-.937A.912.912,0,0,0-363.862,330.829Z" transform="translate(380.015 -300.294)"/></svg>