<svg xmlns="http://www.w3.org/2000/svg" width="75.753" height="50.849" viewBox="0 0 75.753 50.849"><defs><style>.a{fill:#a77d40;}</style></defs><g transform="translate(0)"><path class="a" d="M-487.88-121.981a1.922,1.922,0,0,1-1.6.719,8.848,8.848,0,0,0-4.5,1.265,14.5,14.5,0,0,1-4.948,2.06,12.67,12.67,0,0,1-8.3-1.318,17.969,17.969,0,0,0-3.819-1.708,9.364,9.364,0,0,0-7.421.957,13.843,13.843,0,0,1-6.711,2.256,12.865,12.865,0,0,1-6.479-1.455,19.841,19.841,0,0,0-3.952-1.771,9.4,9.4,0,0,0-7.289.921,14.919,14.919,0,0,1-5.153,2.139,12.354,12.354,0,0,1-8.156-1.331,12.629,12.629,0,0,0-4.387-1.877c-.729-.106-1.473-.121-2.2-.25a.965.965,0,0,1-.819-1.14,1,1,0,0,1,.957-.96,5.65,5.65,0,0,1,.591-.01c.24,0,.479,0,.792,0v-.847q0-8.213,0-16.427c0-1.439.3-1.749,1.727-1.749q11.06,0,22.121,0h1.054v-.846c0-2.787-.016-5.574,0-8.361a4.674,4.674,0,0,1,4.186-4.971,4.538,4.538,0,0,1,5.07,4.065c.124,3.053.064,6.114.084,9.172,0,.29,0,.579,0,.9h7.282v-.812c0-2.812-.017-5.624.005-8.435a4.66,4.66,0,0,1,3.8-4.843c3.034-.515,5.5,1.656,5.526,4.9.022,2.787,0,5.574,0,8.361v.872c.45,0,.815-.025,1.176.005a1.145,1.145,0,0,1,1.17,1.1,1.1,1.1,0,0,1-1.223,1.1c-2.466.018-4.932.009-7.4.01h-.786v17.264c.948-.148,1.881-.343,2.824-.433a12.344,12.344,0,0,1,7.961,1.948,9.7,9.7,0,0,0,6.864,1.435,12,12,0,0,0,3.016-.918c1.451-.652,2.835-1.455,4.3-2.223v-17.072h-.889q-5.216,0-10.432,0c-.271,0-.614.074-.8-.059a2.181,2.181,0,0,1-.846-.964.893.893,0,0,1,.739-1.1,3.315,3.315,0,0,1,.877-.09q5.956-.008,11.911,0c1.365,0,1.682.328,1.682,1.719q0,8.213,0,16.427v.866c.872.086,1.881-.287,2.37.775Zm-48.535-18.246h-22.615v17.022c1.306.675,2.565,1.285,3.785,1.967a10.3,10.3,0,0,0,5.758,1.255,10.935,10.935,0,0,0,5.037-1.748,11.106,11.106,0,0,1,4.911-1.7c1.023-.075,2.055-.014,3.125-.014Zm16.667,14.193h-6.235c-2.489,0-4.978.015-7.467-.011-.545-.006-.753.141-.713.705.046.638-.027,1.284.031,1.92a.952.952,0,0,0,.421.647c.9.5,1.855.909,2.757,1.408a10.1,10.1,0,0,0,10.784-.254.833.833,0,0,0,.4-.533C-519.731-123.4-519.748-124.657-519.748-126.034Zm-14.374-2.278h14.333v-4.781h-14.333Zm14.376-7.109c0-1.424-.025-2.775.012-4.124.016-.571-.139-.763-.739-.757-3.03.03-6.059.014-9.089.014-1.33,0-2.661-.014-3.99.016-.2,0-.565.215-.568.338-.04,1.492-.026,2.985-.026,4.513Zm-9.5-7.126c0-1.564,0-3.042,0-4.519-.006-1.749.024-3.5-.048-5.247a2.336,2.336,0,0,0-2.139-2.187,2.4,2.4,0,0,0-2.51,1.549,4.1,4.1,0,0,0-.2,1.3c-.017,2.81-.01,5.619-.007,8.429,0,.215.026.43.042.672Zm16.608,0c0-3.267.043-6.444-.02-9.618a2.4,2.4,0,0,0-2.46-2.354,2.418,2.418,0,0,0-2.391,2.5c-.029,3.056-.009,6.112-.005,9.169a1.648,1.648,0,0,0,.063.3Z" transform="translate(563.633 156.726)"/><path class="a" d="M-456.621,88.038a1.74,1.74,0,0,1-1.51.735,8.957,8.957,0,0,0-4.572,1.266,15.019,15.019,0,0,1-4.872,2.052,12.68,12.68,0,0,1-8.311-1.253,20.044,20.044,0,0,0-4.023-1.787,9.307,9.307,0,0,0-7.149.9,15.891,15.891,0,0,1-5.071,2.148,12.663,12.663,0,0,1-8.241-1.245,20.419,20.419,0,0,0-4.02-1.794,9.319,9.319,0,0,0-7.217.909,15.375,15.375,0,0,1-5.075,2.138,12.58,12.58,0,0,1-7.708-1.012c-.571-.283-1-.666-.82-1.384.193-.758.856-.941,1.729-.655a21.826,21.826,0,0,0,3.536.946,9.049,9.049,0,0,0,5.96-1.247,14.011,14.011,0,0,1,5.39-2.1,12.178,12.178,0,0,1,7.844,1.442,11.814,11.814,0,0,0,5.942,2,10.033,10.033,0,0,0,5.239-1.287,14.131,14.131,0,0,1,5.6-2.173A12.3,12.3,0,0,1-476.4,88a12.961,12.961,0,0,0,5.18,2.025,10.093,10.093,0,0,0,6.128-1.2,13.957,13.957,0,0,1,5.742-2.2c.393-.032.789-.029,1.179-.076a1.433,1.433,0,0,1,1.546.753Z" transform="translate(532.373 -41.453)"/><path class="a" d="M-175.018,56.053a1.886,1.886,0,0,1-1.66.736c-.513.006-1.025.1-1.539.143a1.141,1.141,0,0,1-1.368-.925,1.14,1.14,0,0,1,1.127-1.277c.632-.084,1.273-.1,1.906-.179a1.408,1.408,0,0,1,1.534.761Z" transform="translate(250.77 -15.389)"/><path class="a" d="M-501.7,60.317a11.294,11.294,0,0,1-5.957-1.742,10.9,10.9,0,0,0-6.587-1.783,9.848,9.848,0,0,0-4.278,1.267,14.883,14.883,0,0,1-4.945,2.066,12.668,12.668,0,0,1-8.24-1.265,19.758,19.758,0,0,0-3.881-1.747,9.42,9.42,0,0,0-7.487.973,13.99,13.99,0,0,1-6.051,2.194,12.869,12.869,0,0,1-7.2-1.478,33.051,33.051,0,0,0-4.1-1.8,7.218,7.218,0,0,0-1.9-.213c-.868-.071-1.368-.5-1.347-1.162s.544-1.054,1.412-1.059A11.233,11.233,0,0,1-556.5,56.15a12.1,12.1,0,0,0,5.065,1.912,10.063,10.063,0,0,0,5.985-1.2,14.527,14.527,0,0,1,5.519-2.186,12.33,12.33,0,0,1,7.852,1.425,12.285,12.285,0,0,0,5.125,1.959,10.046,10.046,0,0,0,5.988-1.184,14.611,14.611,0,0,1,5.59-2.206,12.335,12.335,0,0,1,7.717,1.382,12.369,12.369,0,0,0,5.114,1.991A10.294,10.294,0,0,0-497,57.167a1.249,1.249,0,0,1,1.456.021,1.131,1.131,0,0,1-.37,1.92A12.145,12.145,0,0,1-501.7,60.317Z" transform="translate(563.682 -15.409)"/><path class="a" d="M-561.7,86.631c.393.046.956.092,1.511.183a1.143,1.143,0,0,1,1.063,1.263,1.131,1.131,0,0,1-1.357.931c-.611-.043-1.22-.116-1.831-.158-.9-.062-1.42-.512-1.369-1.2.049-.671.554-1.026,1.443-1.015C-562.116,86.632-561.993,86.631-561.7,86.631Z" transform="translate(563.684 -41.536)"/></g></svg>