<svg xmlns="http://www.w3.org/2000/svg" width="47.043" height="74.79" viewBox="0 0 47.043 74.79"><defs><style>.a{fill:#a77d40;}</style></defs><path class="a" d="M-483.1,121.59c0-1.3,0-2.558,0-3.814,0-.925.369-1.393,1.069-1.39s1.069.487,1.074,1.4c.007,1.256,0,2.511,0,3.8a13.612,13.612,0,0,1,6.1,2.4,3.9,3.9,0,0,1,1.813,3.387q0,3.089,0,6.179v.879c.857.178,1.656.352,2.46.508a1.2,1.2,0,0,1,1.087,1.347c-.015,2.034,0,4.068-.008,6.1,0,.819-.443,1.321-1.1,1.3-.629-.019-1.038-.5-1.044-1.282-.012-1.648.013-3.3-.024-4.943a.816.816,0,0,0-.431-.63c-3.267-.7-6.543-1.366-9.818-2.033a1.494,1.494,0,0,0-.337.016v48.257h10.606v-.836q0-5.136,0-10.272a6.044,6.044,0,0,1,.009-.618,1.05,1.05,0,0,1,1.111-1.04,1.016,1.016,0,0,1,1.02,1.046c.028.358.009.721.009,1.081q0,4.9,0,9.809v.91h.9q4.4,0,8.807,0c1.095,0,1.444.345,1.448,1.418q.01,2.626,0,5.252c0,1.011-.34,1.352-1.335,1.353q-22.171,0-44.343,0c-1.008,0-1.348-.333-1.353-1.334q-.013-2.626,0-5.252c0-1.085.348-1.434,1.428-1.437,2.7-.006,5.408,0,8.112,0h.957v-45.2c0-1.435.022-1.466,1.348-1.949.6-.22,1.2-.472,1.815-.649a.85.85,0,0,0,.708-.985c-.035-2.265.011-4.531-.023-6.8a4.062,4.062,0,0,1,2.03-3.732A13.905,13.905,0,0,1-483.1,121.59Zm-1.426,61.5V135c-.324.107-.592.188-.853.284-2.171.794-4.328,1.628-6.518,2.365a1.091,1.091,0,0,0-.873,1.259q.031,21.618.016,43.236v.945Zm23.988,5.915v-3.657h-42.646v3.657Zm-14.677-55.021c0-2.39.037-4.7-.035-7.005a1.846,1.846,0,0,0-.76-1.17,9.654,9.654,0,0,0-12.071.02,2.007,2.007,0,0,0-.772,1.322c-.07,2.31-.021,4.623-.008,6.935,0,.036.063.072.137.15,1.565-.579,3.145-1.184,4.741-1.739a2.222,2.222,0,0,1,1.1-.064C-480.339,132.93-477.808,133.457-475.214,133.987Z" transform="translate(505.381 -116.386)"/><path class="a" d="M-372.648,251.245c0,1.541.006,3.083,0,4.624,0,.852-.391,1.3-1.079,1.291-.655-.01-1.055-.449-1.058-1.25q-.017-4.7,0-9.4c0-.777.428-1.253,1.055-1.266.655-.014,1.078.481,1.082,1.3C-372.642,248.111-372.648,249.678-372.648,251.245Z" transform="translate(401.74 -218.653)"/><path class="a" d="M-372.647,349.691c0,1.413,0,2.825,0,4.237,0,.842-.4,1.325-1.053,1.33s-1.083-.479-1.086-1.313q-.014-4.276,0-8.552c0-.831.419-1.325,1.069-1.33s1.066.485,1.07,1.314C-372.642,346.815-372.647,348.253-372.647,349.691Z" transform="translate(401.74 -297.084)"/><path class="a" d="M-339.8,328.747c0,.513.026,1.028-.008,1.538a1,1,0,0,1-1.016,1.041,1.015,1.015,0,0,1-1.1-1.03c-.037-1.076-.044-2.156,0-3.231a.972.972,0,0,1,1.051-1,1,1,0,0,1,1.067,1.067C-339.778,327.668-339.8,328.208-339.8,328.747Z" transform="translate(375.681 -282.8)"/><path class="a" d="M-339.789,277.235c0,.488.015.977,0,1.465-.028.728-.438,1.166-1.075,1.146a1.01,1.01,0,0,1-1.057-1.086c-.034-1-.025-2.005,0-3.008a1.046,1.046,0,0,1,1.039-1.12c.6-.052,1.053.44,1.1,1.137,0,.051,0,.1,0,.154Q-339.788,276.58-339.789,277.235Z" transform="translate(375.67 -241.978)"/><path class="a" d="M-427.1,254.4c0,1.515,0,3.029,0,4.544,0,.9-.4,1.4-1.069,1.391-.651-.009-1.048-.49-1.051-1.342q-.014-4.621,0-9.242c0-.857.392-1.339,1.04-1.356.667-.018,1.075.494,1.08,1.384C-427.094,251.317-427.1,252.857-427.1,254.4Z" transform="translate(444.94 -221.154)"/><path class="a" d="M-427.1,352.82c0,1.438.008,2.875,0,4.312-.006.783-.41,1.264-1.03,1.279a1.1,1.1,0,0,1-1.083-1.233q-.022-4.389,0-8.779a1.079,1.079,0,0,1,1.036-1.2c.624-.016,1.068.469,1.075,1.231C-427.09,349.894-427.1,351.357-427.1,352.82Z" transform="translate(444.94 -299.574)"/></svg>